<?xml version="1.0" encoding="utf-8"?>
<!-- Generator: Adobe Illustrator 16.0.0, SVG Export Plug-In . SVG Version: 6.00 Build 0)  -->
<!DOCTYPE svg PUBLIC "-//W3C//DTD SVG 1.1//EN" "http://www.w3.org/Graphics/SVG/1.1/DTD/svg11.dtd">
<svg version="1.1" id="Layer_1" xmlns="http://www.w3.org/2000/svg" xmlns:xlink="http://www.w3.org/1999/xlink" x="0px" y="0px"
	 width="100px" height="100px" viewBox="0 0 100 100" enable-background="new 0 0 100 100" xml:space="preserve">
<g>
	<path fill="none" d="M11.801,87.159L11.801,87.159c-0.826,0.824-0.825,2.162,0,2.988c0.837,0.797,2.152,0.797,2.988,0L43.74,61.196
		l-2.987-2.988L11.801,87.159z"/>
	<path fill="none" d="M7.733,13.929c-2.274,6.3-0.712,13.347,4.015,18.094l19.009,19.018c1.892,1.883,4.887,2.072,7,0.445
		c0.928-0.724,2.247-0.644,3.081,0.186l37.974,37.974c0.775,0.832,2.049,0.953,2.965,0.281c0.467-0.377,0.75-0.938,0.777-1.537
		c0.035-0.596-0.188-1.178-0.611-1.6L8.498,11.83L7.733,13.929z"/>
	<path fill="none" d="M74.182,40.187l2.381-2.381L64.131,25.374l-2.381,2.381c-1.885,1.891-2.074,4.885-0.445,6.999
		c0.723,0.927,0.645,2.247-0.186,3.081L50.71,48.243l2.962,3.023l10.439-10.44c0.83-0.826,2.143-0.909,3.07-0.194
		C69.295,42.26,72.291,42.07,74.182,40.187z"/>
	<path d="M77.494,43.488l4.029-4.031l15.764-15.761c0.928-0.895,0.953-2.374,0.059-3.302c-0.896-0.927-2.373-0.954-3.303-0.058
		c-0.02,0.019-0.037,0.038-0.057,0.057L79.869,34.509l-4.564-4.564l14.111-14.121c0.896-0.927,0.871-2.405-0.057-3.301
		c-0.904-0.874-2.34-0.874-3.244-0.001L71.998,26.638l-4.564-4.565L81.551,7.957c0.895-0.928,0.869-2.406-0.059-3.301
		c-0.904-0.874-2.34-0.874-3.244,0L62.492,20.417l-4.029,4.031c-2.99,3-3.766,7.557-1.938,11.377l-9.08,9.079L9.238,5.913
		C8.335,4.991,6.856,4.977,5.935,5.88C5.686,6.123,5.496,6.418,5.376,6.744l-2.031,5.584C0.455,20.334,2.442,29.29,8.447,35.321
		l19.008,19.013c2.02,2.018,4.809,3.071,7.658,2.897L8.5,83.853c-2.65,2.648-2.65,6.943-0.002,9.594
		c2.649,2.648,6.945,2.65,9.594,0.002l28.951-28.951L75.51,92.948c1.33,1.326,3.131,2.072,5.01,2.074
		c1.541,0.01,3.039-0.52,4.232-1.494c2.895-2.379,3.314-6.654,0.936-9.549c-0.135-0.166-0.279-0.322-0.43-0.475L56.939,54.6
		l9.178-9.175C69.936,47.253,74.494,46.477,77.494,43.488z M14.789,90.147c-0.836,0.797-2.151,0.797-2.988,0
		c-0.825-0.826-0.826-2.164-0.001-2.988h0.001l28.952-28.951l2.987,2.988L14.789,90.147z M81.943,86.79
		c0.424,0.422,0.646,1.004,0.611,1.6c-0.027,0.6-0.311,1.16-0.777,1.537c-0.916,0.672-2.189,0.551-2.965-0.281L40.838,51.672
		c-0.834-0.829-2.153-0.909-3.081-0.186c-2.113,1.627-5.108,1.438-7-0.445L11.748,32.023c-4.727-4.747-6.289-11.793-4.015-18.094
		l0.764-2.099L81.943,86.79z M64.111,40.826l-10.439,10.44l-2.962-3.023l10.409-10.409c0.83-0.833,0.908-2.153,0.186-3.081
		c-1.629-2.113-1.439-5.108,0.445-6.999l2.381-2.381l12.432,12.432l-2.381,2.381c-1.891,1.883-4.887,2.073-7,0.444
		C66.254,39.917,64.941,40,64.111,40.826z"/>
</g>
</svg>
