<?xml version="1.0" encoding="utf-8"?>
<!-- Generator: Adobe Illustrator 16.0.0, SVG Export Plug-In . SVG Version: 6.00 Build 0)  -->
<!DOCTYPE svg PUBLIC "-//W3C//DTD SVG 1.1//EN" "http://www.w3.org/Graphics/SVG/1.1/DTD/svg11.dtd">
<svg version="1.1" id="Layer_1" xmlns="http://www.w3.org/2000/svg" xmlns:xlink="http://www.w3.org/1999/xlink" x="0px" y="0px"
	 width="100px" height="100px" viewBox="0 0 100 100" enable-background="new 0 0 100 100" xml:space="preserve">
<path d="M82.524,13.062c-7.932,0-14.389,6.459-14.389,14.388c0,7.93,6.457,14.389,14.389,14.389c7.931,0,14.388-6.459,14.388-14.389
	C96.912,19.521,90.455,13.062,82.524,13.062z M82.524,16.259c6.2,0,11.19,4.988,11.19,11.191s-4.99,11.191-11.19,11.191
	c-6.201,0-11.19-4.989-11.19-11.191S76.323,16.259,82.524,16.259z M82.524,19.457c-0.888,0-1.599,0.713-1.599,1.599v4.795H76.13
	c-0.888,0-1.6,0.714-1.6,1.599s0.712,1.599,1.6,1.599h4.796v4.796c0,0.885,0.711,1.599,1.599,1.599c0.887,0,1.599-0.713,1.599-1.599
	v-4.796h4.796c0.887,0,1.599-0.713,1.599-1.599s-0.712-1.599-1.599-1.599h-4.796v-4.795C84.123,20.17,83.411,19.457,82.524,19.457z
	 M34.563,54.628H76.13c0.887,0,1.599,0.712,1.599,1.599s-0.712,1.599-1.599,1.599H34.563c-0.885,0-1.599-0.712-1.599-1.599
	S33.678,54.628,34.563,54.628z M31.366,41.839h38.368c0.887,0,1.6,0.713,1.6,1.598c0,0.885-0.713,1.599-1.6,1.599H31.366
	c-0.886,0-1.599-0.713-1.599-1.599C29.767,42.552,30.48,41.839,31.366,41.839z M69.734,73.813c-4.396,0-7.993,3.597-7.993,7.993
	c0,4.397,3.598,7.993,7.993,7.993c4.396,0,7.994-3.596,7.994-7.993C77.729,77.409,74.131,73.813,69.734,73.813z M69.734,77.01
	c2.666,0,4.796,2.129,4.796,4.796s-2.13,4.797-4.796,4.797c-2.667,0-4.796-2.13-4.796-4.797S67.067,77.01,69.734,77.01z
	 M37.761,73.813c-4.396,0-7.994,3.597-7.994,7.993c0,4.397,3.597,7.993,7.994,7.993s7.994-3.596,7.994-7.993
	C45.754,77.409,42.157,73.813,37.761,73.813z M37.761,77.01c2.667,0,4.796,2.129,4.796,4.796s-2.129,4.797-4.796,4.797
	s-4.796-2.13-4.796-4.797S35.094,77.01,37.761,77.01z M2.614,16.259c-2.142,0-2.164,3.198,0,3.198H14.1
	c0.236,1.135,2.047,9.769,4.201,19.919c1.145,5.391,2.315,10.889,3.255,15.239c0.937,4.347,1.614,7.441,1.879,8.418
	c0.422,1.581,0.818,3.373,1.983,4.938c1.157,1.561,3.197,2.642,5.947,2.642h44.738c2.748,0,4.79-1.081,5.951-2.642
	c1.162-1.564,1.555-3.356,1.985-4.94c0.275-1.061,0.716-3.525,1.309-6.616c0.584-3.104,1.28-6.694,1.921-9.425
	c0.524-1.959-2.739-2.813-3.109-0.723c-0.656,2.827-1.365,6.433-1.956,9.542c-0.593,3.11-1.111,5.857-1.255,6.395
	c-0.434,1.617-0.84,3.022-1.462,3.856c-0.617,0.837-1.342,1.354-3.381,1.354H31.366c-2.041,0-2.762-0.518-3.39-1.354
	c-0.617-0.834-1.023-2.239-1.458-3.854c-0.16-0.618-0.895-3.925-1.835-8.265c-0.937-4.344-2.11-9.836-3.252-15.233
	c-2.29-10.785-4.476-21.18-4.476-21.18c-0.154-0.735-0.805-1.266-1.567-1.266L2.614,16.259z M28.175,29.049
	c-2.126,0-2.1,3.197,0,3.197h31.949c2.147,0,2.099-3.197,0-3.197H28.175z"/>
</svg>
