<?xml version="1.0" encoding="utf-8"?>
<!-- Generator: Adobe Illustrator 16.0.0, SVG Export Plug-In . SVG Version: 6.00 Build 0)  -->
<!DOCTYPE svg PUBLIC "-//W3C//DTD SVG 1.1//EN" "http://www.w3.org/Graphics/SVG/1.1/DTD/svg11.dtd">
<svg version="1.1" id="Layer_1" xmlns="http://www.w3.org/2000/svg" xmlns:xlink="http://www.w3.org/1999/xlink" x="0px" y="0px"
	 width="100px" height="100px" viewBox="0 0 100 100" enable-background="new 0 0 100 100" xml:space="preserve">
<path d="M97.554,77.283c0.875,0,1.586-0.713,1.586-1.586v-28.46c0-0.875-0.711-1.586-1.586-1.586H62.47l-0.142-1.375
	c-0.553-5.356-4.465-9.711-9.735-10.837l-1.212-0.259V14.543l2.115,0.87c3.479,1.43,5.726,4.778,5.726,8.529
	c0,0.875,0.712,1.586,1.587,1.586c0.874,0,1.586-0.712,1.586-1.586c0-5.808-4.122-10.905-9.802-12.119l-1.212-0.259V4.64
	c0-0.875-0.711-1.586-1.586-1.586c-0.874,0-1.586,0.712-1.586,1.586v6.981l-1.167,0.287c-5.555,1.366-9.436,6.315-9.436,12.034
	s3.881,10.668,9.436,12.034l1.167,0.287v9.388H2.447c-0.875,0-1.587,0.711-1.587,1.586v28.46c0,0.873,0.712,1.586,1.587,1.586
	h18.271l-3.886,17.738c-0.104,0.473,0.011,0.957,0.313,1.334c0.304,0.375,0.753,0.592,1.236,0.592h63.235
	c0.483,0,0.934-0.215,1.235-0.592c0.303-0.377,0.417-0.863,0.314-1.334l-3.886-17.738H97.554z M51.381,36.158l2.115,0.87
	c2.897,1.191,4.976,3.735,5.56,6.805l0.346,1.818h-8.021V36.158z M46.011,32.245c-3.178-1.533-5.231-4.792-5.231-8.303
	s2.054-6.77,5.231-8.303l2.198-1.06v18.726L46.011,32.245z M4.033,74.111V48.823h91.935v25.289H78.587l-2.793-12.756h6.388
	c0.874,0,1.586-0.713,1.586-1.587s-0.712-1.586-1.586-1.586H17.82c-0.874,0-1.586,0.712-1.586,1.586s0.712,1.587,1.586,1.587h6.388
	l-2.793,12.756H4.033z M20.354,93.773l7.102-32.42H57.28l2.476,32.42H20.354z M79.646,93.773H68.144l-4.456-32.42h8.858
	L79.646,93.773z"/>
</svg>
