<?xml version="1.0" encoding="utf-8"?>
<!-- Generator: Adobe Illustrator 16.0.0, SVG Export Plug-In . SVG Version: 6.00 Build 0)  -->
<!DOCTYPE svg PUBLIC "-//W3C//DTD SVG 1.1//EN" "http://www.w3.org/Graphics/SVG/1.1/DTD/svg11.dtd">
<svg version="1.1" id="Layer_1" xmlns="http://www.w3.org/2000/svg" xmlns:xlink="http://www.w3.org/1999/xlink" x="0px" y="0px"
	 width="100px" height="100px" viewBox="0 0 100 100" enable-background="new 0 0 100 100" xml:space="preserve">
<g>
	<g>
		<g>
			<path d="M64.682,31.942c-0.836,0-1.516-0.679-1.516-1.516s0.68-1.516,1.516-1.516h28.379c1.486,0,2.842,0.613,3.826,1.594
				l0.006,0.006c0.982,0.985,1.598,2.346,1.598,3.83v58.721c0,1.49-0.611,2.854-1.594,3.836l-0.102,0.092
				c-0.975,0.928-2.291,1.502-3.734,1.502H6.943c-1.494,0-2.854-0.612-3.836-1.594c-0.986-0.985-1.598-2.346-1.598-3.84v-58.72
				c0-1.484,0.611-2.845,1.594-3.83l0.004-0.003l-0.004-0.003c0.982-0.982,2.346-1.594,3.836-1.594h28.382
				c0.837,0,1.516,0.679,1.516,1.515c0,0.837-0.679,1.516-1.516,1.516H6.939c-0.656,0-1.26,0.271-1.691,0.707H5.244
				c-0.433,0.433-0.704,1.036-0.704,1.692V93.06c0,0.653,0.274,1.257,0.708,1.692c0.436,0.436,1.035,0.707,1.691,0.707h86.121
				c0.631,0,1.209-0.25,1.639-0.65l0.053-0.057c0.436-0.436,0.707-1.035,0.707-1.692V34.338c0-0.657-0.273-1.263-0.709-1.698
				c-0.436-0.43-1.035-0.701-1.689-0.701H64.682V31.942z"/>
			<path d="M48.044,82.83c-0.837,0-1.515-0.678-1.515-1.515s0.678-1.516,1.515-1.516h23.489c0.836,0,1.516,0.679,1.516,1.516
				s-0.68,1.515-1.516,1.515H48.044L48.044,82.83z M48.044,75.001c-0.837,0-1.515-0.679-1.515-1.515
				c0-0.838,0.678-1.516,1.515-1.516h37.19c0.836,0,1.516,0.678,1.516,1.516c0,0.836-0.68,1.515-1.516,1.515H48.044L48.044,75.001z
				 M48.044,67.172c-0.837,0-1.515-0.68-1.515-1.516c0-0.837,0.678-1.516,1.515-1.516h37.19c0.836,0,1.516,0.679,1.516,1.516
				c0,0.836-0.68,1.516-1.516,1.516H48.044L48.044,67.172z M48.044,59.342c-0.837,0-1.515-0.678-1.515-1.516
				c0-0.836,0.678-1.515,1.515-1.515h37.19c0.836,0,1.516,0.679,1.516,1.515c0,0.838-0.68,1.516-1.516,1.516H48.044z"/>
			<path d="M27.101,56.312c2.569,0,4.905,1.045,6.601,2.737l0.004,0.003l0.003,0.003l0.003,0.004
				c1.689,1.695,2.734,4.028,2.734,6.598c0,2.573-1.049,4.912-2.737,6.602l-0.007,0.006c-1.688,1.689-4.027,2.737-6.601,2.737
				s-4.913-1.048-6.602-2.737l-0.007-0.006c-1.688-1.689-2.736-4.028-2.736-6.602c0-2.572,1.048-4.912,2.736-6.602l0.007-0.006
				C22.191,57.359,24.527,56.312,27.101,56.312L27.101,56.312z M31.564,61.186c-1.137-1.139-2.719-1.844-4.464-1.844
				c-1.743,0-3.321,0.707-4.464,1.844l-0.006,0.007c-1.137,1.143-1.842,2.722-1.842,4.464s0.705,3.321,1.842,4.465l0.006,0.006
				c1.143,1.137,2.721,1.84,4.464,1.84s3.321-0.703,4.464-1.84l0.006-0.006c1.137-1.144,1.841-2.723,1.841-4.465
				c0-1.746-0.704-3.328-1.841-4.464L31.564,61.186z"/>
			<path d="M19.271,82.83c-0.837,0-1.516-0.678-1.516-1.515s0.678-1.516,1.516-1.516H34.93c0.837,0,1.516,0.679,1.516,1.516
				s-0.679,1.515-1.516,1.515H19.271z"/>
			<path d="M64.682,39.771c-0.836,0-1.516-0.679-1.516-1.515c0-0.837,0.68-1.516,1.516-1.516h7.83c0.836,0,1.516,0.679,1.516,1.516
				v0.038v7.792c0,0.837-0.68,1.516-1.516,1.516h-0.039h-44.98c-0.837,0-1.516-0.679-1.516-1.516v-0.041v-7.792
				c0-0.836,0.679-1.516,1.516-1.516h0.037h7.789c0.836,0,1.516,0.679,1.516,1.516s-0.68,1.516-1.516,1.516h-6.314v4.798h41.992
				v-4.798h-6.314V39.771L64.682,39.771z"/>
			<path d="M43.15,1.508h0.038H56.85c0.836,0,1.516,0.679,1.516,1.516v0.038v35.191c0,0.837-0.68,1.516-1.516,1.516h-0.039H43.15
				c-0.836,0-1.516-0.679-1.516-1.516v-0.041V3.024C41.635,2.187,42.317,1.508,43.15,1.508L43.15,1.508z M55.334,4.539H44.666
				v32.199h10.668V4.539z"/>
			<circle cx="50.002" cy="10.85" r="2.545"/>
		</g>
	</g>
</g>
</svg>
