<?xml version="1.0" encoding="utf-8"?>
<!-- Generator: Adobe Illustrator 16.0.0, SVG Export Plug-In . SVG Version: 6.00 Build 0)  -->
<!DOCTYPE svg PUBLIC "-//W3C//DTD SVG 1.1//EN" "http://www.w3.org/Graphics/SVG/1.1/DTD/svg11.dtd">
<svg version="1.1" id="Layer_1" xmlns="http://www.w3.org/2000/svg" xmlns:xlink="http://www.w3.org/1999/xlink" x="0px" y="0px"
	 width="100px" height="100px" viewBox="0 0 100 100" enable-background="new 0 0 100 100" xml:space="preserve">
<path d="M28.264,22.785c0.844,0,1.529,0.685,1.529,1.53c0,0.844-0.685,1.529-1.529,1.529h-2.419v60.167h48.312V25.844h-2.422
	c-0.844,0-1.53-0.685-1.53-1.529c0-0.845,0.687-1.53,1.53-1.53h3.913h0.039c0.844,0,1.529,0.685,1.529,1.53v63.187v0.042
	c0,0.844-0.686,1.53-1.529,1.53H24.354h-0.038c-0.845,0-1.529-0.687-1.529-1.53V24.353v-0.038c0-0.845,0.685-1.53,1.529-1.53H28.264
	z"/>
<path d="M42.098,6.985c0.841,0,1.523,0.682,1.523,1.523s-0.682,1.523-1.523,1.523H37.7v12.754h24.602V10.031l-4.398-0.003
	c-0.841,0-1.522-0.682-1.522-1.523c0-0.842,0.682-1.524,1.522-1.524l5.772,0.004l0.155-0.007c0.846,0,1.53,0.685,1.53,1.53v15.768
	v0.039c0,0.844-0.685,1.529-1.53,1.529H36.208H36.17c-0.845,0-1.53-0.685-1.53-1.529V8.508h0.007c0-0.841,0.682-1.523,1.523-1.523
	H42.098z"/>
<path d="M28.267,12.906c0.845,0,1.529,0.685,1.529,1.53s-0.685,1.529-1.529,1.529h-9.879c-0.66,0-1.269,0.274-1.708,0.714
	c-0.439,0.439-0.714,1.049-0.714,1.708v75.081c0,0.666,0.271,1.274,0.708,1.709l0.006,0.006c0.434,0.436,1.042,0.707,1.708,0.707
	h63.227c0.668,0,1.274-0.271,1.708-0.707l0.006-0.006c0.437-0.435,0.707-1.043,0.707-1.709V18.387c0-0.666-0.271-1.275-0.707-1.708
	l-0.004-0.003l-0.002,0.003c-0.44-0.44-1.047-0.714-1.708-0.714h-9.88c-0.844,0-1.53-0.685-1.53-1.529s0.687-1.53,1.53-1.53h9.88
	c1.507,0,2.881,0.618,3.871,1.609l-0.003,0.003c0.993,0.994,1.612,2.367,1.612,3.869v75.081c0,1.501-0.614,2.871-1.609,3.866
	l-0.007,0.006c-0.994,0.995-2.365,1.609-3.864,1.609H18.389c-1.502,0-2.872-0.614-3.866-1.609l-0.007-0.006
	c-0.994-0.995-1.609-2.365-1.609-3.866V18.387c0-1.507,0.618-2.881,1.609-3.872c0.991-0.992,2.365-1.609,3.872-1.609H28.267z"/>
<path d="M50.001,1.051c1.233,0,2.358,0.507,3.171,1.316l0.006,0.006c0.811,0.813,1.316,1.935,1.316,3.171
	c0,1.233-0.507,2.358-1.316,3.171l-0.003,0.003l0.003,0.003c-0.81,0.813-1.934,1.316-3.177,1.316s-2.368-0.507-3.177-1.316
	c-0.813-0.809-1.316-1.938-1.316-3.177c0-1.236,0.507-2.358,1.319-3.174l-0.003-0.003C47.637,1.558,48.761,1.051,50.001,1.051
	L50.001,1.051z M51.021,4.531l-0.006-0.006c-0.258-0.255-0.616-0.415-1.014-0.415c-0.396,0-0.755,0.162-1.013,0.421l-0.003-0.003
	l-0.003,0.003c-0.252,0.251-0.415,0.615-0.415,1.01s0.162,0.756,0.421,1.013c0.258,0.258,0.618,0.421,1.013,0.421
	c0.395,0,0.756-0.163,1.014-0.421l0.003,0.003c0.256-0.258,0.415-0.618,0.415-1.017C51.435,5.149,51.275,4.789,51.021,4.531z"/>
<g>
	<path d="M67.783,72.181H51.591h-3.569H31.829c-0.844,0-1.529,0.685-1.529,1.528c0,0.846,0.685,1.53,1.529,1.53h16.193h3.569h16.192
		c0.844,0,1.53-0.685,1.53-1.53C69.313,72.865,68.627,72.181,67.783,72.181z"/>
	<path d="M67.783,60.326H51.591h-3.569H31.829c-0.844,0-1.529,0.685-1.529,1.529c0,0.844,0.685,1.53,1.529,1.53h16.193h3.569h16.192
		c0.844,0,1.53-0.687,1.53-1.53C69.313,61.011,68.627,60.326,67.783,60.326z"/>
	<path d="M67.783,48.47H51.591h-3.569H31.829c-0.844,0-1.529,0.686-1.529,1.53s0.685,1.53,1.529,1.53h16.193h3.569h16.192
		c0.844,0,1.53-0.687,1.53-1.53C69.313,49.158,68.627,48.47,67.783,48.47z"/>
	<path d="M31.829,39.675h16.193h3.569h16.192c0.844,0,1.53-0.686,1.53-1.529c0-0.845-0.687-1.53-1.53-1.53H51.591h-3.569H31.829
		c-0.844,0-1.529,0.685-1.529,1.53C30.3,38.989,30.985,39.675,31.829,39.675z"/>
</g>
</svg>
